<svg id="svg" version="1.1" xmlns="http://www.w3.org/2000/svg" xmlns:xlink="http://www.w3.org/1999/xlink" width="400" height="400" viewBox="0, 0, 400,400"><g id="svgg"><path id="path0" d="M70.877 72.828 C 70.444 73.074,70.148 73.181,70.219 73.066 C 70.290 72.951,69.977 73.228,69.523 73.682 C 69.069 74.136,68.718 74.571,68.744 74.649 C 68.770 74.726,68.707 74.789,68.604 74.789 C 68.500 74.789,68.416 74.895,68.415 75.023 C 68.414 75.152,68.290 75.495,68.138 75.786 C 66.168 79.563,73.537 96.615,81.396 106.467 C 90.966 118.464,100.099 124.828,127.224 138.403 C 127.456 138.518,127.645 138.676,127.646 138.754 C 127.647 138.831,127.743 138.894,127.860 138.894 C 127.976 138.894,128.377 139.083,128.750 139.315 C 129.123 139.546,129.470 139.742,129.522 139.750 C 129.853 139.801,130.647 140.299,130.647 140.455 C 130.647 140.559,130.703 140.588,130.771 140.519 C 130.839 140.451,131.171 140.606,131.508 140.863 C 131.845 141.120,132.201 141.331,132.298 141.331 C 132.396 141.331,132.582 141.459,132.712 141.617 C 132.843 141.774,132.994 141.858,133.048 141.804 C 133.102 141.749,133.302 141.845,133.491 142.017 C 133.860 142.350,134.427 142.700,135.080 142.998 C 135.302 143.099,135.540 143.273,135.609 143.384 C 135.677 143.495,135.812 143.538,135.908 143.478 C 136.004 143.419,136.082 143.460,136.082 143.569 C 136.082 143.678,136.209 143.768,136.364 143.768 C 136.518 143.768,136.645 143.852,136.645 143.955 C 136.645 144.058,136.737 144.142,136.850 144.142 C 136.963 144.142,137.320 144.332,137.643 144.564 C 138.342 145.066,138.850 145.375,139.370 145.614 C 139.581 145.711,139.865 145.926,140.003 146.091 C 140.140 146.256,140.368 146.392,140.510 146.392 C 140.652 146.392,140.769 146.490,140.769 146.610 C 140.769 146.731,140.820 146.778,140.882 146.715 C 140.945 146.653,141.158 146.753,141.356 146.937 C 141.554 147.122,142.175 147.505,142.735 147.789 C 143.296 148.072,143.968 148.518,144.230 148.779 C 144.491 149.041,144.707 149.180,144.710 149.088 C 144.714 148.997,144.803 149.072,144.909 149.254 C 145.016 149.437,145.182 149.537,145.279 149.477 C 145.375 149.418,145.455 149.458,145.455 149.567 C 145.455 149.676,145.576 149.766,145.725 149.766 C 145.874 149.766,146.111 149.930,146.252 150.132 C 146.393 150.333,146.735 150.584,147.012 150.689 C 147.290 150.795,147.516 150.972,147.516 151.084 C 147.516 151.196,147.601 151.235,147.704 151.172 C 147.807 151.108,147.891 151.145,147.891 151.254 C 147.891 151.363,148.023 151.453,148.184 151.453 C 148.344 151.453,148.427 151.531,148.368 151.627 C 148.309 151.722,148.447 151.860,148.675 151.932 C 148.902 152.004,149.247 152.242,149.441 152.461 C 149.636 152.680,149.739 152.732,149.672 152.577 C 149.593 152.394,149.644 152.410,149.819 152.624 C 149.967 152.805,150.166 152.952,150.260 152.952 C 150.355 152.952,150.554 153.121,150.703 153.327 C 150.852 153.533,151.051 153.702,151.145 153.702 C 151.240 153.702,151.439 153.850,151.586 154.030 C 151.734 154.210,151.795 154.241,151.721 154.098 C 151.647 153.955,151.852 154.035,152.176 154.274 C 152.500 154.514,152.765 154.778,152.765 154.862 C 152.765 154.946,152.894 155.014,153.052 155.014 C 153.210 155.014,153.387 155.141,153.447 155.295 C 153.506 155.450,153.675 155.576,153.822 155.576 C 153.968 155.576,154.137 155.703,154.197 155.858 C 154.256 156.012,154.398 156.139,154.512 156.139 C 154.626 156.139,154.918 156.371,155.161 156.654 C 155.404 156.938,155.544 157.043,155.471 156.888 C 155.399 156.734,155.599 156.881,155.916 157.216 C 156.233 157.552,156.590 157.826,156.709 157.826 C 156.828 157.826,157.185 158.100,157.503 158.435 C 157.821 158.770,158.012 158.918,157.928 158.763 C 157.845 158.608,158.019 158.744,158.316 159.064 C 159.041 159.845,160.734 161.200,160.985 161.200 C 161.096 161.200,161.276 161.367,161.386 161.573 C 161.496 161.778,161.666 161.925,161.763 161.901 C 161.861 161.876,162.159 162.109,162.427 162.418 C 162.695 162.727,162.859 162.854,162.793 162.699 C 162.726 162.545,162.982 162.755,163.360 163.168 C 163.739 163.580,163.991 163.791,163.920 163.636 C 163.850 163.482,164.051 163.629,164.368 163.964 C 164.684 164.299,165.034 164.574,165.144 164.574 C 165.255 164.574,165.293 164.658,165.230 164.761 C 165.166 164.864,165.242 164.948,165.399 164.948 C 165.556 164.948,165.775 165.117,165.886 165.323 C 165.996 165.530,166.189 165.698,166.314 165.697 C 166.439 165.697,166.911 166.097,167.361 166.587 C 167.812 167.078,168.123 167.352,168.052 167.198 C 167.980 167.043,168.363 167.381,168.901 167.948 C 169.439 168.515,169.772 168.810,169.641 168.604 C 169.509 168.397,169.828 168.672,170.350 169.213 C 170.871 169.754,171.382 170.197,171.485 170.197 C 171.589 170.197,172.163 170.745,172.762 171.415 C 173.362 172.085,173.944 172.633,174.057 172.633 C 174.170 172.634,174.423 172.823,174.619 173.055 L 174.977 173.477 174.508 173.102 L 174.039 172.727 174.390 173.142 C 174.582 173.369,174.804 173.538,174.882 173.516 C 174.961 173.495,176.684 175.151,178.713 177.196 C 180.741 179.242,182.290 180.855,182.156 180.782 C 182.022 180.708,182.249 180.984,182.662 181.396 C 183.555 182.288,183.718 182.501,184.018 183.177 C 184.144 183.461,184.333 183.693,184.438 183.693 C 184.544 183.693,184.630 183.852,184.630 184.047 C 184.630 184.243,184.760 184.452,184.920 184.514 C 185.079 184.575,185.193 184.731,185.172 184.862 C 185.151 184.992,185.290 185.436,185.479 185.848 C 185.840 186.635,186.019 189.503,185.707 189.503 C 185.618 189.503,185.594 189.582,185.653 189.678 C 185.712 189.774,185.552 190.228,185.296 190.685 C 185.041 191.143,184.871 191.557,184.919 191.605 C 184.968 191.653,184.838 191.846,184.631 192.033 C 184.424 192.220,184.255 192.486,184.255 192.625 C 184.255 192.764,184.191 192.877,184.112 192.877 C 184.034 192.877,183.591 193.354,183.128 193.936 C 182.247 195.045,178.729 198.213,173.196 202.881 C 169.578 205.932,168.325 207.005,167.638 207.638 C 167.387 207.870,167.100 208.060,167.002 208.060 C 166.903 208.060,166.823 208.124,166.823 208.203 C 166.823 208.591,190.041 231.527,190.280 231.376 C 190.420 231.287,190.597 231.203,190.675 231.188 C 190.752 231.174,190.836 231.145,190.862 231.124 C 190.888 231.104,191.063 231.057,191.252 231.022 C 191.440 230.986,191.735 230.895,191.908 230.820 C 192.307 230.646,192.472 230.598,193.145 230.459 C 193.447 230.397,194.290 230.183,195.019 229.984 C 203.655 227.621,215.812 226.716,224.086 227.820 C 224.499 227.875,225.258 227.970,225.773 228.032 C 227.275 228.213,227.353 228.228,227.472 228.347 C 227.535 228.409,227.789 228.424,228.038 228.378 C 228.288 228.333,228.491 228.387,228.491 228.498 C 228.491 228.610,228.577 228.648,228.681 228.583 C 228.786 228.519,229.355 228.572,229.946 228.701 C 231.127 228.959,231.237 228.985,231.443 229.052 C 231.521 229.077,231.651 229.087,231.732 229.073 C 231.814 229.059,232.067 229.143,232.294 229.258 C 232.522 229.373,198.059 194.808,155.709 152.448 C 113.360 110.088,78.777 75.356,78.858 75.267 C 78.940 75.177,78.916 75.155,78.806 75.218 C 78.696 75.280,78.364 75.106,78.067 74.832 C 77.771 74.557,77.405 74.314,77.255 74.292 C 77.105 74.270,76.932 74.174,76.870 74.078 C 76.808 73.983,76.338 73.721,75.827 73.496 C 75.315 73.272,74.845 73.005,74.782 72.903 C 74.430 72.334,71.834 72.285,70.877 72.828 " stroke="none" fill="#fc4c6c" fill-rule="evenodd"></path><path id="path1" d="M116.026 242.229 C 115.459 242.534,114.944 242.864,114.881 242.963 C 114.818 243.062,114.709 243.130,114.639 243.113 C 114.569 243.096,112.048 244.305,109.037 245.799 C 85.408 257.528,66.381 263.761,36.885 269.438 C 31.834 270.410,27.674 271.232,27.641 271.265 C 27.608 271.299,27.703 271.915,27.853 272.636 C 28.326 274.909,27.802 274.677,32.153 274.537 C 48.941 273.996,66.777 270.742,90.722 263.854 C 97.208 261.988,100.404 261.026,117.888 255.681 C 121.953 254.438,125.390 253.421,125.526 253.421 C 125.662 253.421,125.773 253.347,125.773 253.258 C 125.773 253.168,126.195 253.038,126.710 252.970 C 127.226 252.902,127.648 252.755,127.648 252.645 C 127.648 252.534,127.774 252.492,127.929 252.551 C 128.566 252.796,127.973 252.151,122.879 247.059 C 116.950 241.133,117.434 241.474,116.026 242.229 M127.957 253.618 C 127.559 254.025,127.279 254.358,127.333 254.358 C 127.387 254.358,127.202 254.590,126.922 254.873 C 125.282 256.534,110.760 273.330,105.857 279.238 C 98.660 287.911,87.535 302.804,87.535 303.766 C 87.535 303.833,88.568 303.848,89.831 303.800 C 93.520 303.658,95.171 302.838,98.407 299.538 C 99.489 298.434,102.060 295.978,104.120 294.080 C 106.179 292.181,110.230 288.393,113.121 285.661 C 124.359 275.043,130.251 269.682,135.569 265.235 C 136.367 264.568,137.020 263.952,137.020 263.865 C 137.020 263.779,137.083 263.744,137.160 263.788 C 137.238 263.832,137.571 263.601,137.900 263.273 L 138.500 262.677 133.589 257.778 L 128.679 252.879 127.957 253.618 " stroke="none" fill="#fc2679" fill-rule="evenodd"></path><path id="path2" d="M168.211 206.963 C 167.856 207.363,167.856 207.364,168.276 207.143 C 168.507 207.022,168.697 206.841,168.697 206.741 C 168.697 206.475,168.608 206.516,168.211 206.963 M166.034 208.706 C 158.419 215.411,135.097 231.576,124.836 237.262 C 124.372 237.519,123.782 237.868,123.524 238.038 C 123.266 238.208,122.591 238.589,122.024 238.884 C 121.457 239.180,120.770 239.577,120.496 239.767 C 120.222 239.957,119.922 240.112,119.828 240.112 C 119.735 240.112,119.474 240.284,119.248 240.495 C 119.022 240.705,118.838 240.825,118.838 240.762 C 118.838 240.699,118.705 240.781,118.543 240.943 C 118.381 241.105,118.096 241.237,117.910 241.237 C 117.724 241.237,117.456 241.380,117.314 241.554 C 117.173 241.729,117.147 241.818,117.256 241.752 C 117.366 241.687,119.889 244.067,122.862 247.042 C 126.950 251.132,128.359 252.433,128.642 252.379 C 128.990 252.312,128.986 252.338,128.580 252.770 C 128.340 253.025,128.244 253.233,128.365 253.233 C 128.486 253.233,128.585 253.129,128.585 253.000 C 128.585 252.872,130.821 255.002,133.554 257.733 C 137.955 262.131,138.487 262.726,138.204 262.933 C 138.029 263.062,137.980 263.168,138.095 263.168 C 138.210 263.168,138.468 262.960,138.668 262.706 C 138.868 262.451,139.076 262.287,139.129 262.341 C 139.182 262.394,139.405 262.211,139.622 261.934 C 139.840 261.657,140.019 261.484,140.019 261.550 C 140.019 261.651,143.327 259.091,146.392 256.618 C 159.661 245.911,177.755 235.479,189.804 231.590 C 189.988 231.530,166.862 208.239,166.633 208.253 C 166.583 208.257,166.313 208.461,166.034 208.706 " stroke="none" fill="#fc3771" fill-rule="evenodd"></path><path id="path3" d="M187.871 165.626 C 231.148 208.922,266.490 244.419,266.409 244.508 C 266.327 244.598,266.362 244.613,266.485 244.542 C 266.615 244.468,266.798 244.577,266.917 244.799 C 267.030 245.010,267.194 245.140,267.282 245.086 C 267.369 245.032,267.639 245.196,267.882 245.452 C 268.124 245.708,268.409 245.918,268.515 245.920 C 268.621 245.922,268.985 246.176,269.323 246.485 C 269.662 246.795,270.017 247.048,270.113 247.048 C 270.209 247.048,270.393 247.216,270.521 247.423 C 270.650 247.629,270.836 247.798,270.935 247.798 C 271.033 247.798,271.372 248.045,271.686 248.347 C 272.001 248.650,272.912 249.507,273.711 250.253 C 274.510 250.999,275.138 251.635,275.107 251.666 C 275.076 251.697,275.540 252.244,276.138 252.883 C 276.737 253.521,277.226 254.159,277.226 254.300 C 277.226 254.442,277.352 254.606,277.506 254.665 C 277.660 254.724,277.749 254.832,277.704 254.904 C 277.660 254.977,277.871 255.271,278.175 255.557 C 278.479 255.844,278.685 256.146,278.634 256.229 C 278.582 256.313,278.671 256.431,278.832 256.493 C 278.993 256.554,279.077 256.681,279.020 256.774 C 278.962 256.867,279.046 256.993,279.207 257.055 C 279.370 257.118,279.440 257.263,279.364 257.385 C 279.290 257.505,279.311 257.552,279.411 257.491 C 279.510 257.429,293.694 271.482,310.930 288.719 C 328.166 305.956,342.268 320.020,342.268 319.973 C 342.268 319.926,342.369 319.989,342.493 320.112 C 342.617 320.236,342.864 320.337,343.042 320.337 C 343.220 320.337,343.477 320.443,343.614 320.572 C 343.750 320.701,344.030 320.836,344.236 320.872 C 344.442 320.908,344.653 320.992,344.705 321.059 C 344.756 321.126,344.967 321.208,345.173 321.241 C 345.380 321.273,345.856 321.458,346.233 321.650 C 346.609 321.842,346.967 321.948,347.029 321.887 C 347.091 321.825,347.142 321.878,347.142 322.004 C 347.142 322.131,347.214 322.189,347.302 322.135 C 347.391 322.080,348.171 322.323,349.036 322.675 C 349.901 323.026,352.381 323.830,354.545 324.461 C 356.710 325.092,359.957 326.074,361.761 326.643 C 367.740 328.529,369.974 328.043,371.751 324.471 C 373.005 321.950,372.434 320.477,368.806 316.870 C 366.052 314.132,363.621 310.964,355.857 300.000 C 337.702 274.359,329.540 257.171,325.772 236.645 C 321.239 211.952,313.382 196.496,302.505 190.868 C 297.058 188.050,292.131 187.178,279.944 186.872 C 276.232 186.779,272.815 186.623,272.350 186.524 C 266.151 185.210,265.216 180.518,269.691 173.179 C 272.019 169.361,273.949 167.113,281.219 159.754 C 284.194 156.742,286.579 154.197,286.518 154.099 C 286.457 154.000,285.047 153.102,283.384 152.104 C 268.157 142.959,258.638 141.828,246.017 147.663 C 230.131 155.009,226.260 153.538,220.727 138.051 C 212.307 114.486,200.431 104.723,175.820 101.129 C 153.069 97.808,134.317 94.089,119.025 89.865 C 118.458 89.708,117.024 89.327,115.839 89.018 C 112.654 88.188,109.785 87.326,109.466 87.102 C 109.311 86.994,144.593 122.330,187.871 165.626 " stroke="none" fill="#fc5464" fill-rule="evenodd"></path><path id="path4" d="M70.452 72.926 L 70.009 73.312 70.572 72.983 C 71.312 72.549,71.323 72.540,71.092 72.540 C 70.983 72.540,70.695 72.714,70.452 72.926 M75.351 73.290 C 75.712 73.487,76.092 73.649,76.195 73.649 C 76.298 73.649,76.087 73.487,75.726 73.290 C 75.366 73.092,74.986 72.930,74.883 72.930 C 74.780 72.930,74.991 73.092,75.351 73.290 M155.143 151.863 C 197.637 194.357,232.362 229.195,232.309 229.281 C 232.256 229.367,232.282 229.421,232.367 229.400 C 232.452 229.379,232.858 229.457,233.271 229.574 C 233.683 229.690,234.231 229.826,234.489 229.876 C 235.689 230.106,241.397 231.999,244.118 233.068 C 248.809 234.910,249.873 235.402,256.909 238.974 C 257.436 239.242,257.992 239.564,258.145 239.691 C 258.298 239.818,258.478 239.866,258.546 239.798 C 258.614 239.731,258.669 239.761,258.669 239.866 C 258.669 239.970,259.049 240.212,259.513 240.404 C 259.977 240.595,260.356 240.813,260.356 240.889 C 260.356 240.964,260.651 241.132,261.012 241.263 C 261.373 241.393,261.668 241.557,261.668 241.628 C 261.668 241.698,261.816 241.805,261.996 241.866 C 262.177 241.927,262.973 242.393,263.765 242.903 C 264.558 243.412,265.380 243.884,265.593 243.951 C 265.805 244.019,265.979 244.153,265.979 244.249 C 265.979 244.345,266.106 244.424,266.261 244.424 C 266.415 244.424,266.542 244.508,266.542 244.611 C 266.542 244.714,266.647 244.799,266.776 244.799 C 266.905 244.799,231.542 209.330,188.192 165.981 L 109.375 87.163 110.938 87.643 C 111.798 87.907,112.537 88.088,112.580 88.045 C 112.645 87.980,110.356 87.237,109.597 87.077 C 109.473 87.051,109.246 86.976,109.091 86.911 C 108.936 86.846,107.249 86.289,105.342 85.673 C 102.134 84.637,98.050 83.202,94.986 82.036 C 94.290 81.771,93.721 81.603,93.721 81.662 C 93.721 81.722,93.615 81.683,93.486 81.576 C 93.275 81.400,90.896 80.435,90.440 80.340 C 90.337 80.318,90.063 80.196,89.831 80.069 C 89.599 79.941,89.410 79.892,89.410 79.960 C 89.410 80.028,89.304 79.998,89.175 79.894 C 88.842 79.625,86.223 78.533,86.223 78.663 C 86.223 78.723,86.114 78.681,85.981 78.571 C 85.747 78.376,82.758 77.041,82.381 76.962 C 82.277 76.941,81.845 76.742,81.420 76.520 C 80.994 76.299,80.594 76.170,80.529 76.234 C 80.465 76.299,80.412 76.248,80.412 76.121 C 80.412 75.995,80.328 75.944,80.225 76.007 C 80.122 76.071,80.037 76.048,80.037 75.955 C 80.037 75.801,79.012 75.233,79.002 75.381 C 79.000 75.416,78.794 75.255,78.545 75.023 C 78.296 74.791,78.045 74.602,77.987 74.602 C 77.928 74.602,112.649 109.369,155.143 151.863 M113.402 88.379 C 113.763 88.518,114.227 88.632,114.433 88.633 C 114.639 88.634,114.428 88.515,113.964 88.369 C 112.905 88.035,112.527 88.042,113.402 88.379 M142.643 147.751 C 142.643 147.870,144.094 148.828,144.274 148.828 C 144.351 148.828,144.247 148.715,144.044 148.576 C 143.149 147.966,142.643 147.667,142.643 147.751 M151.812 154.145 C 152.062 154.452,152.765 154.917,152.765 154.775 C 152.765 154.739,152.491 154.509,152.156 154.264 C 151.779 153.988,151.648 153.942,151.812 154.145 M167.948 167.069 C 167.948 167.101,168.222 167.375,168.557 167.678 L 169.166 168.229 168.615 167.619 C 168.102 167.052,167.948 166.924,167.948 167.069 M170.103 169.072 C 170.506 169.485,170.877 169.822,170.929 169.822 C 170.980 169.822,170.693 169.485,170.291 169.072 C 169.888 168.660,169.516 168.322,169.465 168.322 C 169.413 168.322,169.700 168.660,170.103 169.072 M171.341 170.244 C 171.385 170.269,171.842 170.670,172.356 171.134 L 173.290 171.978 172.454 171.087 C 171.994 170.597,171.537 170.197,171.439 170.197 C 171.340 170.197,171.296 170.218,171.341 170.244 M173.967 172.680 C 174.013 172.706,174.934 173.571,176.013 174.602 L 177.976 176.476 176.105 174.555 C 175.076 173.498,174.155 172.634,174.058 172.634 C 173.962 172.634,173.921 172.655,173.967 172.680 M267.291 245.127 C 267.291 245.206,267.460 245.376,267.666 245.505 C 267.873 245.634,268.041 245.674,268.041 245.595 C 268.041 245.516,267.873 245.346,267.666 245.217 C 267.460 245.088,267.291 245.048,267.291 245.127 M268.885 246.386 C 269.194 246.639,269.531 246.849,269.634 246.853 C 269.738 246.856,269.569 246.651,269.260 246.398 C 268.950 246.144,268.613 245.934,268.510 245.931 C 268.407 245.928,268.575 246.132,268.885 246.386 M270.103 247.329 C 270.231 247.484,270.421 247.610,270.524 247.610 C 270.628 247.610,270.608 247.486,270.478 247.329 C 270.350 247.174,270.160 247.048,270.057 247.048 C 269.953 247.048,269.973 247.172,270.103 247.329 M271.135 248.174 C 271.322 248.380,271.516 248.509,271.566 248.459 C 271.692 248.333,271.224 247.798,270.988 247.798 C 270.882 247.798,270.948 247.967,271.135 248.174 M273.472 250.307 C 274.243 251.092,274.957 251.734,275.060 251.734 C 275.301 251.734,272.940 249.332,272.446 249.075 C 272.240 248.968,272.702 249.522,273.472 250.307 M275.701 252.577 C 276.680 253.867,277.212 254.459,277.219 254.264 C 277.222 254.161,276.754 253.571,276.178 252.952 C 275.553 252.280,275.360 252.129,275.701 252.577 M278.207 255.858 C 278.335 256.064,278.505 256.232,278.585 256.232 C 278.664 256.232,278.623 256.064,278.494 255.858 C 278.366 255.651,278.196 255.483,278.116 255.483 C 278.037 255.483,278.078 255.651,278.207 255.858 M279.100 257.123 C 279.100 257.252,279.185 257.357,279.288 257.357 C 279.391 257.357,279.475 257.450,279.475 257.564 C 279.475 257.678,279.728 258.146,280.037 258.605 C 280.347 259.063,280.600 259.518,280.600 259.616 C 280.600 259.714,280.689 259.794,280.798 259.794 C 280.907 259.794,280.951 259.869,280.894 259.960 C 280.838 260.051,280.917 260.230,281.070 260.358 C 281.224 260.485,281.350 260.700,281.350 260.834 C 281.350 260.969,281.455 261.191,281.584 261.327 C 281.713 261.463,281.965 261.870,282.145 262.231 C 282.578 263.099,282.901 263.606,283.130 263.774 C 283.233 263.850,283.257 263.913,283.182 263.915 C 283.060 263.917,285.208 267.629,285.461 267.854 C 285.519 267.905,285.727 268.243,285.923 268.604 C 286.119 268.964,286.561 269.660,286.907 270.150 C 287.252 270.640,287.535 271.125,287.535 271.228 C 287.535 271.331,287.619 271.415,287.723 271.415 C 287.826 271.415,287.910 271.502,287.910 271.609 C 287.910 271.787,290.453 275.700,290.707 275.914 C 290.769 275.965,291.062 276.383,291.360 276.841 C 291.657 277.299,291.973 277.763,292.063 277.872 C 292.152 277.981,292.830 278.913,293.570 279.944 C 298.709 287.108,307.413 296.789,313.027 301.585 C 313.903 302.333,315.059 303.327,315.594 303.793 C 318.007 305.893,327.049 312.465,327.524 312.465 C 327.571 312.465,328.061 312.771,328.613 313.145 C 329.164 313.520,329.869 313.947,330.178 314.096 C 330.487 314.244,331.078 314.568,331.490 314.816 C 331.903 315.065,332.684 315.491,333.228 315.764 C 333.771 316.037,334.262 316.336,334.318 316.428 C 334.375 316.520,334.500 316.546,334.596 316.487 C 334.692 316.428,334.770 316.473,334.770 316.589 C 334.770 316.704,334.855 316.746,334.958 316.682 C 335.061 316.619,335.145 316.661,335.145 316.776 C 335.145 316.891,335.230 316.933,335.333 316.870 C 335.436 316.806,335.520 316.829,335.520 316.920 C 335.520 317.107,337.385 318.020,337.619 317.948 C 337.702 317.922,337.769 317.990,337.769 318.099 C 337.769 318.208,337.854 318.246,337.957 318.182 C 338.060 318.118,338.144 318.155,338.144 318.264 C 338.144 318.374,338.208 318.448,338.285 318.429 C 338.362 318.410,339.227 318.782,340.206 319.254 C 341.186 319.727,342.026 320.076,342.073 320.030 C 342.120 319.984,327.971 305.759,310.629 288.418 C 293.288 271.077,279.100 256.994,279.100 257.123 M343.018 320.525 C 343.172 320.625,343.425 320.707,343.580 320.707 C 343.830 320.707,343.830 320.686,343.580 320.525 C 343.425 320.425,343.172 320.343,343.018 320.343 C 342.768 320.343,342.768 320.363,343.018 320.525 M344.892 321.183 C 344.892 321.323,346.253 321.851,346.354 321.750 C 346.404 321.700,346.328 321.617,346.184 321.566 C 346.041 321.515,345.691 321.388,345.408 321.285 C 345.124 321.181,344.892 321.135,344.892 321.183 M347.704 322.290 C 347.962 322.427,348.383 322.592,348.641 322.657 C 348.899 322.721,348.772 322.611,348.360 322.413 C 347.512 322.005,346.986 321.906,347.704 322.290 " stroke="none" fill="#fc4c64" fill-rule="evenodd"></path></g></svg>