<svg width="2534" height="2534" viewBox="0 0 2534 2534" fill="none" xmlns="http://www.w3.org/2000/svg">
<path d="M1616.68 2347.48C1616.68 2302.08 1629.12 2247.99 1629.12 2247.99H1762.81C1762.81 2247.99 1806.34 2307.68 1810.07 2347.48C1813.8 2387.27 1762.81 2435.77 1762.81 2435.77H1652.75C1652.75 2435.77 1616.68 2392.87 1616.68 2347.48Z" fill="black"/>
<path d="M2237.88 2298.97C2214.25 2275.97 2193.1 2219.38 2193.1 2219.38L2317.47 2109.32C2317.47 2109.32 2369.7 2139.79 2387.73 2179.59C2405.76 2219.38 2387.73 2280.94 2387.73 2280.94L2346.07 2336.9C2346.07 2336.9 2261.5 2321.98 2237.88 2298.97Z" fill="black"/>
<path d="M1440.71 1669.08C1413.35 1671.56 1357.89 1632.14 1317.59 1561.5L1413.35 1475.69C1413.35 1475.69 1493.57 1532.28 1502.89 1561.5C1512.22 1590.73 1507.25 1583.89 1502.89 1610.63C1498.54 1637.36 1468.07 1666.59 1440.71 1669.08Z" fill="black"/>
<path d="M1961.79 1560.26C1980.44 1536.01 2038.27 1511.14 2038.27 1511.14L2103.56 1560.26C2103.56 1560.26 2066.88 1628.04 2052.58 1641.72C2038.27 1655.4 1988.53 1662.24 1972.98 1662.24C1957.44 1662.24 1937.54 1625.55 1940.65 1611.25C1943.76 1596.95 1943.14 1584.51 1961.79 1560.26Z" fill="black"/>
<path d="M1326.92 1596.95C1326.92 1596.95 1203.8 1434.65 1217.48 1375.58C1231.16 1316.51 1264.74 1281.69 1346.82 1203.34C1428.9 1124.99 1540.2 1105.71 1540.2 1105.71L1558.23 1093.9H1964.9C1964.9 1093.9 2088.64 1123.13 2158.9 1203.34C2229.17 1283.55 2225.44 1275.47 2240.98 1348.22C2256.53 1420.97 2101.7 1587 2101.7 1587L2015.89 1515.49C2015.89 1515.49 2107.92 1383.67 2066.88 1348.22C2025.84 1312.78 1954.95 1315.27 1954.95 1315.27C1954.95 1315.27 1923.24 1530.41 1927.59 1587C1931.94 1643.58 2086.15 1843.18 2086.15 1843.18L2323.06 2109.32L2178.18 2226.84C2025.11 2002.61 1928.69 1913.5 1741.67 1806.5L1755.35 2252.34H1626.63C1626.63 2252.34 1579.38 2132.95 1540.2 1970.66C1501.03 1808.36 1517.19 1679.03 1519.06 1610.63C1520.92 1542.23 1497.3 1315.27 1497.3 1315.27C1497.3 1315.27 1395.32 1343.25 1393.45 1393.61C1391.59 1443.98 1442.58 1491.24 1442.58 1491.24L1326.92 1596.95Z" fill="white" stroke="black" stroke-width="30"/>
<line x1="1860.54" y1="1869.92" x2="1860.54" y2="1111.31" stroke="black" stroke-width="30"/>
<line x1="1744.88" y1="1800.28" x2="1744.88" y2="1111.31" stroke="black" stroke-width="30"/>
<line x1="1629.23" y1="2223.11" x2="1629.23" y2="1111.31" stroke="black" stroke-width="30"/>
<path d="M1438.31 544.218C1438.31 544.218 1320.17 405.553 1323.9 242.638C1327.63 79.7233 1489.92 103.974 1590.65 152.475C1691.39 200.977 1722.48 405.553 1722.48 405.553L1438.31 544.218Z" fill="black" stroke="black" stroke-width="30"/>
<path d="M2068.21 526.953C2068.21 526.953 2186.35 388.289 2182.62 225.374C2178.89 62.4592 2016.6 86.7098 1915.86 135.211C1815.13 183.713 1784.04 388.289 1784.04 388.289L2068.21 526.953Z" fill="black" stroke="black" stroke-width="30"/>
<path d="M1389.9 529.294L2098.77 529.294C2098.77 529.294 2080.12 468.226 1995.55 413.637C1910.98 359.048 1908.93 364.272 1767.34 357.997C1625.76 351.723 1495.61 413.637 1495.61 413.637L1389.9 529.294Z" fill="#A3F556"/>
<path d="M2149.14 712.729L2101.26 524.942L1392.39 524.942L1354.46 712.729L2149.14 712.729Z" fill="#83DDFC"/>
<path d="M2137.32 901.76L2137.32 700.293L1356.33 700.293L1356.33 901.76L2137.32 901.76Z" fill="#EBB548"/>
<path d="M2103.75 1065.92L2142.3 876.266L2080.74 876.266L1354.46 886.215L1374.36 1065.92L1617.49 1081.46L1859.37 1081.46L2103.75 1065.92Z" fill="#DA434F"/>
<path d="M2106.14 1080.84H1382.35C1382.35 1080.84 1294.67 793.565 1382.35 547.327C1470.02 301.09 2024.06 250.101 2106.14 547.327C2188.22 844.554 2106.14 1080.84 2106.14 1080.84Z" stroke="black" stroke-width="30"/>
<path d="M539.265 2347.48C539.265 2302.08 551.701 2247.99 551.701 2247.99H685.391C685.391 2247.99 728.918 2307.68 732.649 2347.48C736.38 2387.27 685.391 2435.77 685.391 2435.77H575.33C575.33 2435.77 539.265 2392.87 539.265 2347.48Z" fill="black"/>
<path d="M1160.46 2298.97C1136.83 2275.97 1115.69 2219.38 1115.69 2219.38L1240.05 2109.32C1240.05 2109.32 1292.28 2139.79 1310.31 2179.59C1328.35 2219.38 1310.31 2280.94 1310.31 2280.94L1268.65 2336.9C1268.65 2336.9 1184.08 2321.98 1160.46 2298.97Z" fill="black"/>
<path d="M363.292 1669.08C335.932 1671.56 280.467 1632.14 240.173 1561.5L335.932 1475.69C335.932 1475.69 416.146 1532.28 425.473 1561.5C434.801 1590.73 429.826 1583.89 425.473 1610.63C421.121 1637.36 390.652 1666.59 363.292 1669.08Z" fill="black"/>
<path d="M884.371 1560.26C903.026 1536.01 960.854 1511.14 960.854 1511.14L1026.14 1560.26C1026.14 1560.26 989.458 1628.04 975.156 1641.72C960.854 1655.4 911.109 1662.24 895.564 1662.24C880.019 1662.24 860.121 1625.55 863.23 1611.25C866.339 1596.95 865.717 1584.51 884.371 1560.26Z" fill="black"/>
<path d="M249.5 1596.95C249.5 1596.95 126.381 1434.65 140.061 1375.58C153.741 1316.51 187.319 1281.69 269.398 1203.34C351.477 1124.99 462.782 1105.71 462.782 1105.71L480.814 1093.9H887.48C887.48 1093.9 1011.22 1123.13 1081.49 1203.34C1151.75 1283.55 1148.02 1275.47 1163.56 1348.22C1179.11 1420.97 1024.28 1587 1024.28 1587L938.469 1515.49C938.469 1515.49 1030.5 1383.67 989.457 1348.22C948.418 1312.78 877.531 1315.27 877.531 1315.27C877.531 1315.27 845.819 1530.41 850.171 1587C854.524 1643.58 1008.73 1843.18 1008.73 1843.18L1245.64 2109.32L1100.76 2226.84C947.691 2002.61 851.271 1913.5 664.249 1806.5L677.929 2252.34H549.214C549.214 2252.34 501.956 2132.95 462.782 1970.66C423.608 1808.36 439.775 1679.03 441.64 1610.63C443.506 1542.23 419.877 1315.27 419.877 1315.27C419.877 1315.27 317.899 1343.25 316.034 1393.61C314.169 1443.98 365.157 1491.24 365.157 1491.24L249.5 1596.95Z" fill="white" stroke="black" stroke-width="30"/>
<line x1="441.64" y1="1389.81" x2="863.229" y2="1389.81" stroke="black" stroke-width="30"/>
<line x1="441.64" y1="1495.52" x2="863.229" y2="1495.52" stroke="black" stroke-width="30"/>
<line x1="441.64" y1="1599.98" x2="863.229" y2="1599.98" stroke="black" stroke-width="30"/>
<path d="M360.891 544.218C360.891 544.218 242.747 405.553 246.478 242.638C250.209 79.7233 412.502 103.974 513.235 152.475C613.969 200.977 645.06 405.553 645.06 405.553L360.891 544.218Z" fill="black" stroke="black" stroke-width="30"/>
<path d="M990.787 526.953C990.787 526.953 1108.93 388.289 1105.2 225.374C1101.47 62.4592 939.177 86.7098 838.443 135.211C737.71 183.713 706.619 388.289 706.619 388.289L990.787 526.953Z" fill="black" stroke="black" stroke-width="30"/>
<path d="M491.385 1070.27V399.958C491.385 399.958 374.677 420.004 320.088 504.577C265.499 589.149 271.774 656.807 265.499 798.387C259.225 939.968 320.088 1070.27 320.088 1070.27H491.385Z" fill="#A3F556"/>
<path d="M664.871 345.238L487.033 378.194V1080.84H674.82L664.871 345.238Z" fill="#83DDFC"/>
<path d="M853.902 378.194L662.384 348.969V1078.98H863.851L853.902 378.194Z" fill="#EBB548"/>
<path d="M992.567 470.223L863.851 370.111L838.357 354.565L848.306 1080.84H1028.01L1072.78 816.572L1043.56 575.931L992.567 470.223Z" fill="#DA434F"/>
<path d="M1028.72 1080.84H304.928C304.928 1080.84 217.253 793.566 304.928 547.328C392.604 301.091 946.639 250.102 1028.72 547.328C1110.8 844.555 1028.72 1080.84 1028.72 1080.84Z" stroke="black" stroke-width="30"/>
</svg>
