<svg width="2534" height="2534" viewBox="0 0 2534 2534" fill="none" xmlns="http://www.w3.org/2000/svg">
<rect width="2534" height="2534" rx="200" fill="#388E3C"/>
<path d="M1570.06 2205.33C1570.06 2165.92 1580.86 2118.95 1580.86 2118.95H1696.94C1696.94 2118.95 1734.73 2170.78 1737.97 2205.33C1741.21 2239.89 1696.94 2282 1696.94 2282H1601.38C1601.38 2282 1570.06 2244.75 1570.06 2205.33Z" fill="black"/>
<path d="M2109.44 2163.22C2088.92 2143.24 2070.56 2094.11 2070.56 2094.11L2178.54 1998.54C2178.54 1998.54 2223.9 2025 2239.55 2059.55C2255.21 2094.11 2239.55 2147.56 2239.55 2147.56L2203.38 2196.15C2203.38 2196.15 2129.95 2183.2 2109.44 2163.22Z" fill="black"/>
<path d="M1417.26 1616.29C1393.51 1618.44 1345.35 1584.21 1310.36 1522.88L1393.51 1448.37C1393.51 1448.37 1463.16 1497.5 1471.26 1522.88C1479.35 1548.26 1475.04 1542.32 1471.26 1565.53C1467.48 1588.75 1441.02 1614.13 1417.26 1616.29Z" fill="black"/>
<path d="M1869.71 1521.8C1885.91 1500.74 1936.12 1479.15 1936.12 1479.15L1992.81 1521.8C1992.81 1521.8 1960.96 1580.65 1948.54 1592.53C1936.12 1604.41 1892.93 1610.35 1879.43 1610.35C1865.93 1610.35 1848.66 1578.49 1851.36 1566.07C1854.06 1553.65 1853.52 1542.86 1869.71 1521.8Z" fill="black"/>
<path d="M1318.46 1553.65C1318.46 1553.65 1211.56 1412.74 1223.44 1361.45C1235.31 1310.15 1264.47 1279.92 1335.74 1211.89C1407.01 1143.86 1503.65 1127.12 1503.65 1127.12L1519.31 1116.86H1872.41C1872.41 1116.86 1979.86 1142.24 2040.87 1211.89C2101.88 1281.54 2098.64 1274.52 2112.14 1337.69C2125.63 1400.86 1991.19 1545.02 1991.19 1545.02L1916.69 1482.93C1916.69 1482.93 1996.59 1368.46 1960.96 1337.69C1925.32 1306.91 1863.77 1309.07 1863.77 1309.07C1863.77 1309.07 1836.24 1495.88 1840.02 1545.02C1843.8 1594.15 1977.7 1767.46 1977.7 1767.46L2183.4 1998.54L2057.6 2100.59C1924.69 1905.89 1840.97 1828.51 1678.58 1735.61L1690.46 2122.73H1578.7C1578.7 2122.73 1537.67 2019.06 1503.65 1878.14C1469.64 1737.23 1483.67 1624.92 1485.29 1565.53C1486.91 1506.14 1466.4 1309.07 1466.4 1309.07C1466.4 1309.07 1377.85 1333.37 1376.23 1377.1C1374.61 1420.84 1418.88 1461.87 1418.88 1461.87L1318.46 1553.65Z" fill="white" stroke="black" stroke-width="30"/>
<line x1="1779.82" y1="1790.68" x2="1779.82" y2="1131.98" stroke="black" stroke-width="30"/>
<line x1="1679.4" y1="1730.21" x2="1679.4" y2="1131.98" stroke="black" stroke-width="30"/>
<line x1="1578.97" y1="2097.35" x2="1578.97" y2="1131.98" stroke="black" stroke-width="30"/>
<path d="M1415.18 639.58C1415.18 639.58 1312.6 519.178 1315.84 377.721C1319.08 236.263 1459.99 257.32 1547.46 299.433C1634.93 341.546 1661.92 519.178 1661.92 519.178L1415.18 639.58Z" fill="black" stroke="black" stroke-width="30"/>
<path d="M1962.11 624.588C1962.11 624.588 2064.7 504.187 2061.46 362.73C2058.22 221.272 1917.3 242.329 1829.84 284.442C1742.37 326.555 1715.37 504.187 1715.37 504.187L1962.11 624.588Z" fill="black" stroke="black" stroke-width="30"/>
<path d="M1373.15 626.622L1988.65 626.622C1988.65 626.622 1972.46 573.597 1899.03 526.197C1825.59 478.798 1823.81 483.334 1700.88 477.886C1577.95 472.438 1464.94 526.197 1464.94 526.197L1373.15 626.622Z" fill="#A3F556"/>
<path d="M2032.39 785.896L1990.81 622.842L1375.31 622.842L1342.38 785.896L2032.39 785.896Z" fill="#83DDFC"/>
<path d="M2022.13 950.03L2022.13 775.098L1344 775.098L1344 950.03L2022.13 950.03Z" fill="#EBB548"/>
<path d="M1992.97 1092.57L2026.45 927.894L1973 927.894L1342.38 936.532L1359.65 1092.57L1570.76 1106.07L1780.79 1106.07L1992.97 1092.57Z" fill="#DA434F"/>
<path d="M1995.05 1105.52H1366.59C1366.59 1105.52 1290.46 856.084 1366.59 642.278C1442.72 428.472 1923.78 384.199 1995.05 642.278C2066.32 900.358 1995.05 1105.52 1995.05 1105.52Z" stroke="black" stroke-width="30"/>
<path d="M634.547 2205.33C634.547 2165.92 645.346 2118.95 645.346 2118.95H761.427C761.427 2118.95 799.221 2170.78 802.461 2205.33C805.7 2239.89 761.427 2282 761.427 2282H665.862C665.862 2282 634.547 2244.75 634.547 2205.33Z" fill="black"/>
<path d="M1173.92 2163.22C1153.4 2143.24 1135.05 2094.11 1135.05 2094.11L1243.03 1998.54C1243.03 1998.54 1288.38 2025 1304.04 2059.55C1319.7 2094.11 1304.04 2147.56 1304.04 2147.56L1267.87 2196.15C1267.87 2196.15 1194.44 2183.2 1173.92 2163.22Z" fill="black"/>
<path d="M481.75 1616.29C457.994 1618.44 409.834 1584.21 374.847 1522.88L457.994 1448.37C457.994 1448.37 527.643 1497.5 535.742 1522.88C543.841 1548.26 539.521 1542.32 535.742 1565.53C531.962 1588.75 505.507 1614.13 481.75 1616.29Z" fill="black"/>
<path d="M934.2 1521.8C950.397 1500.74 1000.61 1479.15 1000.61 1479.15L1057.3 1521.8C1057.3 1521.8 1025.45 1580.65 1013.03 1592.53C1000.61 1604.41 957.416 1610.35 943.918 1610.35C930.42 1610.35 913.143 1578.49 915.842 1566.07C918.542 1553.65 918.002 1542.86 934.2 1521.8Z" fill="black"/>
<path d="M382.946 1553.65C382.946 1553.65 276.043 1412.74 287.921 1361.45C299.799 1310.15 328.955 1279.92 400.224 1211.89C471.492 1143.86 568.137 1127.12 568.137 1127.12L583.795 1116.86H936.899C936.899 1116.86 1044.34 1142.24 1105.35 1211.89C1166.36 1281.54 1163.12 1274.52 1176.62 1337.69C1190.12 1400.86 1055.68 1545.02 1055.68 1545.02L981.172 1482.93C981.172 1482.93 1061.08 1368.46 1025.45 1337.69C989.811 1306.91 928.26 1309.07 928.26 1309.07C928.26 1309.07 900.725 1495.88 904.504 1545.02C908.284 1594.15 1042.18 1767.46 1042.18 1767.46L1247.89 1998.54L1122.09 2100.59C989.18 1905.89 905.459 1828.51 743.07 1735.61L754.948 2122.73H643.185C643.185 2122.73 602.152 2019.06 568.137 1878.14C534.122 1737.23 548.16 1624.92 549.78 1565.53C551.4 1506.14 530.883 1309.07 530.883 1309.07C530.883 1309.07 442.337 1333.37 440.717 1377.1C439.098 1420.84 483.37 1461.87 483.37 1461.87L382.946 1553.65Z" fill="white" stroke="black" stroke-width="30"/>
<line x1="549.78" y1="1371.82" x2="915.843" y2="1371.82" stroke="black" stroke-width="30"/>
<line x1="549.78" y1="1463.61" x2="915.843" y2="1463.61" stroke="black" stroke-width="30"/>
<line x1="549.78" y1="1554.31" x2="915.843" y2="1554.31" stroke="black" stroke-width="30"/>
<path d="M479.666 639.58C479.666 639.58 377.082 519.178 380.322 377.721C383.561 236.263 524.479 257.32 611.945 299.433C699.411 341.546 726.407 519.178 726.407 519.178L479.666 639.58Z" fill="black" stroke="black" stroke-width="30"/>
<path d="M1026.6 624.588C1026.6 624.588 1129.18 504.187 1125.94 362.73C1122.7 221.272 981.787 242.329 894.321 284.442C806.855 326.555 779.859 504.187 779.859 504.187L1026.6 624.588Z" fill="black" stroke="black" stroke-width="30"/>
<path d="M592.972 1096.35V514.319C592.972 514.319 491.636 531.726 444.237 605.159C396.837 678.593 402.286 737.339 396.837 860.273C391.389 983.206 444.237 1096.35 444.237 1096.35H592.972Z" fill="#A3F556"/>
<path d="M743.609 466.807L589.193 495.423V1105.53H752.248L743.609 466.807Z" fill="#83DDFC"/>
<path d="M907.743 495.423L741.449 470.047V1103.91H916.382L907.743 495.423Z" fill="#EBB548"/>
<path d="M1028.14 575.331L916.381 488.405L894.245 474.907L902.883 1105.53H1058.92L1097.79 876.063L1072.42 667.116L1028.14 575.331Z" fill="#DA434F"/>
<path d="M1059.53 1105.53H431.073C431.073 1105.53 354.945 856.086 431.073 642.28C507.201 428.474 988.265 384.201 1059.53 642.28C1130.8 900.36 1059.53 1105.53 1059.53 1105.53Z" stroke="black" stroke-width="30"/>
</svg>
