<svg width="14" height="13" viewBox="0 0 14 13" fill="none" xmlns="http://www.w3.org/2000/svg">
<path d="M2.15385 2.75333H2.65385V2.25333V0.5H2.73077V2.25333V2.75333H3.23077H10.7692H11.2692V2.25333V0.5H11.3462V2.25333V2.75333H11.8462H13.5V12.5H0.5V2.75333H2.15385ZM1.07692 2.79333H0.576923V3.29333V11.96V12.46H1.07692H12.9231H13.4231V11.96V3.29333V2.79333H12.9231H1.07692ZM3.37179 5.78667H3.80769V6.17333H3.37179V5.78667ZM3.37179 9.46667V9.08H3.80769V9.46667H3.37179ZM6.78205 5.78667H7.21795V6.17333H6.78205V5.78667ZM6.78205 9.46667V9.08H7.21795V9.46667H6.78205ZM10.1923 5.78667H10.6282V6.17333H10.1923V5.78667ZM10.1923 9.46667V9.08H10.6282V9.46667H10.1923Z" fill="#707EAE" stroke="#707EAE"/>
</svg>
