<svg width="10" height="12" viewBox="0 0 10 12" fill="none" xmlns="http://www.w3.org/2000/svg">
<path fill-rule="evenodd" clip-rule="evenodd" d="M4 1.5C3.86739 1.5 3.74022 1.55268 3.64645 1.64645C3.55268 1.74021 3.5 1.86739 3.5 2V2.5H6.5V2C6.5 1.86739 6.44732 1.74021 6.35355 1.64645C6.25979 1.55268 6.13261 1.5 6 1.5H4ZM7.5 2.5V2C7.5 1.60217 7.34196 1.22064 7.06066 0.93934C6.77936 0.658035 6.39782 0.5 6 0.5H4C3.60218 0.5 3.22064 0.658035 2.93934 0.93934C2.65804 1.22064 2.5 1.60217 2.5 2V2.5H0.5C0.223858 2.5 0 2.72386 0 3C0 3.27614 0.223858 3.5 0.5 3.5H1V10C1 10.3978 1.15804 10.7794 1.43934 11.0607C1.72064 11.342 2.10217 11.5 2.5 11.5H7.5C7.89783 11.5 8.27936 11.342 8.56066 11.0607C8.84196 10.7794 9 10.3978 9 10V3.5H9.5C9.77614 3.5 10 3.27614 10 3C10 2.72386 9.77614 2.5 9.5 2.5H7.5ZM2 3.5V10C2 10.1326 2.05268 10.2598 2.14645 10.3536C2.24022 10.4473 2.36739 10.5 2.5 10.5H7.5C7.63261 10.5 7.75978 10.4473 7.85355 10.3536C7.94732 10.2598 8 10.1326 8 10V3.5H2Z" fill="#79869F"/>
</svg>
