<svg width="12" height="12" viewBox="0 0 12 12" fill="none" xmlns="http://www.w3.org/2000/svg">
<path fill-rule="evenodd" clip-rule="evenodd" d="M9.5 1.58582C9.37994 1.58582 9.26106 1.60946 9.15014 1.65541C9.03922 1.70135 8.93844 1.76869 8.85355 1.85358L2.19744 8.50969L1.71261 10.2874L3.49033 9.80258L10.1464 3.14648C10.2313 3.06158 10.2987 2.9608 10.3446 2.84988C10.3906 2.73897 10.4142 2.62009 10.4142 2.50003C10.4142 2.37997 10.3906 2.26109 10.3446 2.15017C10.2987 2.03926 10.2313 1.93848 10.1464 1.85358C10.0616 1.76869 9.96077 1.70135 9.84985 1.65541C9.73893 1.60946 9.62005 1.58582 9.5 1.58582ZM8.76746 0.731526C8.9997 0.635328 9.24862 0.585815 9.5 0.585815C9.75137 0.585815 10.0003 0.635328 10.2325 0.731526C10.4648 0.827724 10.6758 0.968724 10.8535 1.14648C11.0313 1.32423 11.1723 1.53525 11.2685 1.76749C11.3647 1.99974 11.4142 2.24865 11.4142 2.50003C11.4142 2.75141 11.3647 3.00032 11.2685 3.23257C11.1723 3.46481 11.0313 3.67583 10.8535 3.85358L4.10355 10.6036C4.04202 10.6651 3.9655 10.7095 3.88156 10.7324L1.13156 11.4824C0.958449 11.5296 0.773318 11.4805 0.646443 11.3536C0.519568 11.2267 0.470404 11.0416 0.517614 10.8685L1.26761 8.11847C1.29051 8.03452 1.33492 7.958 1.39644 7.89648L8.14644 1.14648C8.32419 0.968724 8.53522 0.827724 8.76746 0.731526Z" fill="#79869F"/>
</svg>
