<svg width="12" height="10" viewBox="0 0 12 10" fill="none" xmlns="http://www.w3.org/2000/svg">
<path fill-rule="evenodd" clip-rule="evenodd" d="M1.14904 1.39306L6 4.78873L10.851 1.39306C10.7608 1.21469 10.5753 1.09091 10.3636 1.09091H1.63636C1.42475 1.09091 1.23925 1.21469 1.14904 1.39306ZM10.9091 2.68399L6.3128 5.9014C6.12499 6.03287 5.87501 6.03287 5.6872 5.9014L1.09091 2.68399V8.18182C1.09091 8.48057 1.33761 8.72727 1.63636 8.72727H10.3636C10.6624 8.72727 10.9091 8.48057 10.9091 8.18182V2.68399ZM0 1.63636C0 0.735117 0.735117 0 1.63636 0H10.3636C11.2649 0 12 0.735117 12 1.63636V8.18182C12 9.08307 11.2649 9.81818 10.3636 9.81818H1.63636C0.735117 9.81818 0 9.08307 0 8.18182V1.63636Z" fill="#79869F"/>
</svg>
